<svg xmlns="http://www.w3.org/2000/svg" shape-rendering="geometricPrecision" text-rendering="geometricPrecision" image-rendering="optimizeQuality" fill-rule="evenodd" clip-rule="evenodd" viewBox="0 0 512 504.16"><path d="m170.87 259.84 3.15 9.75 10.24-.02-8.3 6 3.19 9.73-8.28-6.03-8.27 6.03 3.18-9.73-8.3-6 10.25.02 3.14-9.75zM257.07 0c30.75 0 55.66 24.92 55.66 55.67 0 30.74-24.91 55.67-55.66 55.67-30.75 0-55.67-24.93-55.67-55.67C201.4 24.92 226.32 0 257.07 0zm-39.88 140.2c24.69-1.51 50.96-1.95 79.35 0l89.97-92.06c19.47-21.48 59.8 1.45 34.86 32.73L326.7 196.93l2.21 23.41c-7.45-.31-14.98-.46-22.54-.46-26.47 0-53.72 1.82-80.53 4.92-13.93 1.61-27.7 3.56-41.15 5.78l3.08-32.63L92.33 80.87C67.4 49.59 107.72 26.66 127.2 48.14l89.99 92.06zM512 373.95v123.34c0 3.79-3.07 6.87-6.86 6.87h-21.87c-3.23 0-5.94-2.24-6.68-5.24-7.54-21.66-15.13-34.2-25.46-41.08-10.44-6.95-24.56-8.68-44.94-8.66l-315.41.46c-15.28-.35-25.21 4.08-32.42 12.11-7.75 8.65-12.98 21.75-18.26 37.69-.95 2.87-3.63 4.68-6.49 4.68l-26.75.04c-3.79 0-6.86-3.08-6.86-6.87V373.95c0-3.79 3.07-6.86 6.86-6.86h498.28c3.79 0 6.86 3.07 6.86 6.86zM68.94 49.18h2.89a35.268 35.268 0 0 0-2.24 13.73h-.65c-6.81 0-12.98 2.7-17.42 7.08-4.37 4.31-7.08 10.31-7.08 17v180.04c-4.9 1.91-9.48 3.81-13.71 5.7l-.02-185.74c0-10.49 4.3-19.93 11.22-26.76 6.93-6.84 16.5-11.05 27.01-11.05zm79.94 0h37.98c-.19 2.14-.29 4.3-.29 6.49 0 2.44.12 4.86.36 7.24h-24.62l-13.43-13.73zm178.4 0h37.53l-13.42 13.73H327.2c.25-2.38.37-4.8.37-7.24 0-2.19-.1-4.35-.29-6.49zm114.59 0h2.91c10.51 0 20.07 4.31 26.99 11.23 6.93 6.93 11.23 16.5 11.23 27v177.18c-4.37-3.26-8.96-6.31-13.73-9.17V87.41c0-6.71-2.76-12.84-7.21-17.29-4.44-4.44-10.56-7.21-17.28-7.21h-.66c.17-4.87-.65-9.48-2.25-13.73zm68.2 300.93h-82.46l-1.35-4.13 12.52-9.07-15.45.04-4.75-14.71-4.74 14.71-15.47-.04 12.52 9.07-1.34 4.13H191.4l7.17-9.6 16.39 5.63-10-14.15 10.42-13.84-16.54 5.13-9.95-14.2-.24 17.33-16.56 5.08 16.41 5.57-.23 13.05H128.5l-3.97-12.14 12.6-9.11-15.55.03-4.78-14.81-4.78 14.81-15.55-.03 12.6 9.11-3.97 12.14H1.93v-30.69c0-9.19 9.39-18.49 25.9-26.93 23.89-12.2 66.3-26.26 116.26-37.16 21.2-4.63 43.83-8.71 67.06-11.88l-.09 5.47 4.53-6.07c29.08-3.82 60.94-6.28 90.78-6.28 46.46 0 90.99 5.71 127.44 20.04l-3.72 11.54-13.88-.04 11.25 8.14-4.32 13.19 11.21-8.18 11.22 8.18-4.32-13.19 11.24-8.14-13.87.04-3.57-11.06c17.08 6.84 32.35 15.61 45.18 26.6l-7.06-.03 7.4 5.36-2.83 8.69 7.37-5.39 7.39 5.39-1.02-3.11c6.77 7.46 12.58 15.76 17.28 24.96.44.86.76 1.75.97 2.64.19.85.29 1.72.29 2.57l.05 25.34zm-384.34 0h-17.86l8.93-6.51 8.93 6.51zm-86.28-36.62-2.8 8.7-9.14-.02 7.4 5.36-2.83 8.68 7.37-5.39 7.38 5.39-2.84-8.68 7.4-5.36-9.13.02-2.81-8.7zm50.01-38.62 2.8 8.7 9.13-.02-7.4 5.36 2.84 8.67-7.37-5.37-7.38 5.37 2.83-8.67-7.4-5.36 9.14.02 2.81-8.7zm286.08-17.26-4.26 13.2-13.89-.02 11.25 8.14-4.31 13.18 11.21-8.18 11.2 8.18-4.3-13.18 11.23-8.14-13.87.02-4.26-13.2zm-18.01 52.11 2.8 8.7 9.13-.02-7.4 5.36 2.84 8.68-7.37-5.39-7.39 5.39 2.84-8.68-7.4-5.36 9.13.02 2.82-8.7zm-106.68-49.49-.21 15.56-14.88 4.55 14.74 5-.27 15.56 9.31-12.46 14.7 5.06-8.97-12.71 9.36-12.43-14.85 4.61-8.93-12.74zm67.48-14.06-.13 10.24-9.79 3 9.69 3.29-.17 10.25 6.13-8.21 9.69 3.33-5.92-8.36 6.17-8.18-9.79 3.03-5.88-8.39zm-29.32 72.76-.13 10.24-9.8 3 9.7 3.31-.18 10.23 6.13-8.21 9.69 3.34-5.91-8.37 6.16-8.18-9.78 3.03-5.88-8.39zm183.5-.52-2.8 8.69-9.13-.01 7.4 5.36-2.84 8.67 7.37-5.38 7.39 5.38-2.84-8.67 7.4-5.36-9.13.01-2.82-8.69z"/></svg>